<svg width="1550" height="1550" viewBox="0 0 1550 1550" fill="none" xmlns="http://www.w3.org/2000/svg">
<path fill-rule="evenodd" clip-rule="evenodd" d="M0 0H1550V1550H0V0ZM75 75V1475H1475V75H75Z" fill="black"/>
<path fill-rule="evenodd" clip-rule="evenodd" d="M575 300H300V650H575C616.421 650 650 616.421 650 575V375C650 333.579 616.421 300 575 300ZM225 225V725H575C657.843 725 725 657.843 725 575V375C725 292.157 657.843 225 575 225H225Z" fill="black"/>
<path fill-rule="evenodd" clip-rule="evenodd" d="M825 368.75C825 289.359 889.359 225 968.75 225H1181.25C1260.64 225 1325 289.359 1325 368.75H1250C1250 330.78 1219.22 300 1181.25 300H968.75C930.78 300 900 330.78 900 368.75C900 406.72 930.78 437.5 968.75 437.5H1181.25C1260.64 437.5 1325 501.859 1325 581.25C1325 660.641 1260.64 725 1181.25 725H968.75C889.359 725 825 660.641 825 581.25H900C900 619.22 930.78 650 968.75 650H1181.25C1219.22 650 1250 619.22 1250 581.25C1250 543.28 1219.22 512.5 1181.25 512.5H968.75C889.359 512.5 825 448.141 825 368.75Z" fill="black"/>
<path fill-rule="evenodd" clip-rule="evenodd" d="M575 900H300V1250H575C616.421 1250 650 1216.42 650 1175V975C650 933.579 616.421 900 575 900ZM225 825V1325H575C657.843 1325 725 1257.84 725 1175V975C725 892.157 657.843 825 575 825H225Z" fill="black"/>
<path fill-rule="evenodd" clip-rule="evenodd" d="M825 968.75C825 889.359 889.359 825 968.75 825H1181.25C1260.64 825 1325 889.359 1325 968.75H1250C1250 930.78 1219.22 900 1181.25 900H968.75C930.78 900 900 930.78 900 968.75C900 1006.72 930.78 1037.5 968.75 1037.5H1181.25C1260.64 1037.5 1325 1101.86 1325 1181.25C1325 1260.64 1260.64 1325 1181.25 1325H968.75C889.359 1325 825 1260.64 825 1181.25H900C900 1219.22 930.78 1250 968.75 1250H1181.25C1219.22 1250 1250 1219.22 1250 1181.25C1250 1143.28 1219.22 1112.5 1181.25 1112.5H968.75C889.359 1112.5 825 1048.14 825 968.75Z" fill="black"/>
</svg>
