<svg xmlns="http://www.w3.org/2000/svg" width="1232" height="1352" viewBox="0 0 1232 1352">
  <rect x="0" y="0" width="1232" height="1352" fill="#FFFFFF" />
  <defs>
    <marker id="arrowhead" markerWidth="12" markerHeight="12" refX="6" refY="3" orient="auto" markerUnits="userSpaceOnUse">
      <polygon points="0 0, 6 3, 0 6" fill="#999999" />
    </marker>
  </defs>
  <!-- Edges -->
  <g>
    <path d="M 176.39999999999998 676 C 457.44999999999993 676, 698.35 609, 979.4 609" fill="none" stroke="#999999" stroke-width="1" opacity="0.35" marker-end="url(#arrowhead)" />
    <path d="M 176.39999999999998 676 C 457.44999999999993 676, 698.35 469, 979.4 469" fill="none" stroke="#999999" stroke-width="1" opacity="0.35" marker-end="url(#arrowhead)" />
    <path d="M 176.39999999999998 676 C 457.44999999999993 676, 698.35 867, 979.4 867" fill="none" stroke="#999999" stroke-width="1" opacity="0.35" marker-end="url(#arrowhead)" />
    <path d="M 176.39999999999998 676 C 219.79999999999998 676, 257 528, 300.4 528" fill="none" stroke="#999999" stroke-width="1" opacity="0.35" marker-end="url(#arrowhead)" />
    <path d="M 176.39999999999998 676 C 219.79999999999998 676, 257 816, 300.4 816" fill="none" stroke="#999999" stroke-width="1" opacity="0.35" marker-end="url(#arrowhead)" />
    <path d="M 176.39999999999998 676 C 219.79999999999998 676, 257 738, 300.4 738" fill="none" stroke="#999999" stroke-width="1" opacity="0.35" marker-end="url(#arrowhead)" />
    <path d="M 176.39999999999998 676 C 219.79999999999998 676, 257 668, 300.4 668" fill="none" stroke="#999999" stroke-width="1" opacity="0.35" marker-end="url(#arrowhead)" />
    <path d="M 176.39999999999998 676 C 219.79999999999998 676, 257 598, 300.4 598" fill="none" stroke="#999999" stroke-width="1" opacity="0.35" marker-end="url(#arrowhead)" />
    <path d="M 1073.7 427 C 1073.7 451, 1073.7 779, 1073.7 755" fill="none" stroke="#999999" stroke-width="1" opacity="0.5" marker-end="url(#arrowhead)" />
    <path d="M 1073.7 825 C 1073.7 849, 1073.7 919, 1073.7 895" fill="none" stroke="#999999" stroke-width="1" opacity="0.5" marker-end="url(#arrowhead)" />
    <path d="M 831.4 120 C 883.1999999999999 120, 927.6 867, 979.4 867" fill="none" stroke="#999999" stroke-width="1" opacity="0.35" marker-end="url(#arrowhead)" />
    <path d="M 831.4 206 C 883.1999999999999 206, 927.6 867, 979.4 867" fill="none" stroke="#999999" stroke-width="1" opacity="0.35" marker-end="url(#arrowhead)" />
    <path d="M 831.4 206 C 883.1999999999999 206, 927.6 539, 979.4 539" fill="none" stroke="#999999" stroke-width="1" opacity="0.35" marker-end="url(#arrowhead)" />
    <path d="M 831.4 206 C 883.1999999999999 206, 927.6 399, 979.4 399" fill="none" stroke="#999999" stroke-width="1" opacity="0.35" marker-end="url(#arrowhead)" />
    <path d="M 831.4 308 C 883.1999999999999 308, 927.6 867, 979.4 867" fill="none" stroke="#999999" stroke-width="1" opacity="0.35" marker-end="url(#arrowhead)" />
    <path d="M 831.4 308 C 883.1999999999999 308, 927.6 399, 979.4 399" fill="none" stroke="#999999" stroke-width="1" opacity="0.35" marker-end="url(#arrowhead)" />
    <path d="M 831.4 418 C 883.1999999999999 418, 927.6 867, 979.4 867" fill="none" stroke="#999999" stroke-width="1" opacity="0.35" marker-end="url(#arrowhead)" />
    <path d="M 831.4 418 C 883.1999999999999 418, 927.6 399, 979.4 399" fill="none" stroke="#999999" stroke-width="1" opacity="0.35" marker-end="url(#arrowhead)" />
    <path d="M 831.4 504 C 883.1999999999999 504, 927.6 867, 979.4 867" fill="none" stroke="#999999" stroke-width="1" opacity="0.35" marker-end="url(#arrowhead)" />
    <path d="M 831.4 504 C 883.1999999999999 504, 927.6 399, 979.4 399" fill="none" stroke="#999999" stroke-width="1" opacity="0.35" marker-end="url(#arrowhead)" />
    <path d="M 831.4 614 C 883.1999999999999 614, 927.6 867, 979.4 867" fill="none" stroke="#999999" stroke-width="1" opacity="0.35" marker-end="url(#arrowhead)" />
    <path d="M 734.2 808 C 734.2 832, 734.2 478, 734.2 454" fill="none" stroke="#999999" stroke-width="1" opacity="0.5" marker-end="url(#arrowhead)" />
    <path d="M 831.4 748 C 883.1999999999999 748, 927.6 797, 979.4 797" fill="none" stroke="#999999" stroke-width="1" opacity="0.35" marker-end="url(#arrowhead)" />
    <path d="M 734.2 808 C 734.2 832, 734.2 188, 734.2 164" fill="none" stroke="#999999" stroke-width="1" opacity="0.5" marker-end="url(#arrowhead)" />
    <path d="M 734.2 808 C 734.2 832, 734.2 564, 734.2 540" fill="none" stroke="#999999" stroke-width="1" opacity="0.5" marker-end="url(#arrowhead)" />
    <path d="M 734.2 808 C 734.2 832, 734.2 258, 734.2 234" fill="none" stroke="#999999" stroke-width="1" opacity="0.5" marker-end="url(#arrowhead)" />
    <path d="M 734.2 808 C 734.2 832, 734.2 392, 734.2 368" fill="none" stroke="#999999" stroke-width="1" opacity="0.5" marker-end="url(#arrowhead)" />
    <path d="M 734.2 808 C 734.2 832, 734.2 1300, 734.2 1276" fill="none" stroke="#999999" stroke-width="1" opacity="0.5" marker-end="url(#arrowhead)" />
    <path d="M 734.2 808 C 734.2 832, 734.2 1214, 734.2 1190" fill="none" stroke="#999999" stroke-width="1" opacity="0.5" marker-end="url(#arrowhead)" />
    <path d="M 734.2 808 C 734.2 832, 734.2 698, 734.2 674" fill="none" stroke="#999999" stroke-width="1" opacity="0.5" marker-end="url(#arrowhead)" />
    <path d="M 734.2 808 C 734.2 832, 734.2 1074, 734.2 1050" fill="none" stroke="#999999" stroke-width="1" opacity="0.5" marker-end="url(#arrowhead)" />
    <path d="M 734.2 808 C 734.2 832, 734.2 1144, 734.2 1120" fill="none" stroke="#999999" stroke-width="1" opacity="0.5" marker-end="url(#arrowhead)" />
    <path d="M 734.2 808 C 734.2 832, 734.2 1004, 734.2 980" fill="none" stroke="#999999" stroke-width="1" opacity="0.5" marker-end="url(#arrowhead)" />
    <path d="M 734.2 808 C 734.2 832, 734.2 918, 734.2 894" fill="none" stroke="#999999" stroke-width="1" opacity="0.5" marker-end="url(#arrowhead)" />
    <path d="M 831.4 858 C 883.1999999999999 858, 927.6 867, 979.4 867" fill="none" stroke="#999999" stroke-width="1" opacity="0.35" marker-end="url(#arrowhead)" />
    <path d="M 831.4 858 C 883.1999999999999 858, 927.6 399, 979.4 399" fill="none" stroke="#999999" stroke-width="1" opacity="0.35" marker-end="url(#arrowhead)" />
    <path d="M 831.4 944 C 883.1999999999999 944, 927.6 867, 979.4 867" fill="none" stroke="#999999" stroke-width="1" opacity="0.35" marker-end="url(#arrowhead)" />
    <path d="M 831.4 944 C 883.1999999999999 944, 927.6 399, 979.4 399" fill="none" stroke="#999999" stroke-width="1" opacity="0.35" marker-end="url(#arrowhead)" />
    <path d="M 831.4 1022 C 883.1999999999999 1022, 927.6 867, 979.4 867" fill="none" stroke="#999999" stroke-width="1" opacity="0.35" marker-end="url(#arrowhead)" />
    <path d="M 831.4 1092 C 883.1999999999999 1092, 927.6 867, 979.4 867" fill="none" stroke="#999999" stroke-width="1" opacity="0.35" marker-end="url(#arrowhead)" />
    <path d="M 831.4 1162 C 883.1999999999999 1162, 927.6 867, 979.4 867" fill="none" stroke="#999999" stroke-width="1" opacity="0.35" marker-end="url(#arrowhead)" />
    <path d="M 831.4 1162 C 883.1999999999999 1162, 927.6 797, 979.4 797" fill="none" stroke="#999999" stroke-width="1" opacity="0.35" marker-end="url(#arrowhead)" />
    <path d="M 831.4 1162 C 883.1999999999999 1162, 927.6 399, 979.4 399" fill="none" stroke="#999999" stroke-width="1" opacity="0.35" marker-end="url(#arrowhead)" />
    <path d="M 831.4 1240 C 883.1999999999999 1240, 927.6 867, 979.4 867" fill="none" stroke="#999999" stroke-width="1" opacity="0.35" marker-end="url(#arrowhead)" />
    <path d="M 831.4 1240 C 883.1999999999999 1240, 927.6 797, 979.4 797" fill="none" stroke="#999999" stroke-width="1" opacity="0.35" marker-end="url(#arrowhead)" />
    <path d="M 831.4 1240 C 883.1999999999999 1240, 927.6 399, 979.4 399" fill="none" stroke="#999999" stroke-width="1" opacity="0.35" marker-end="url(#arrowhead)" />
    <path d="M 489 528 C 660.64 528, 807.76 703, 979.4 703" fill="none" stroke="#999999" stroke-width="1" opacity="0.35" marker-end="url(#arrowhead)" />
    <path d="M 489 528 C 660.64 528, 807.76 867, 979.4 867" fill="none" stroke="#999999" stroke-width="1" opacity="0.35" marker-end="url(#arrowhead)" />
    <path d="M 489 528 C 660.64 528, 807.76 945, 979.4 945" fill="none" stroke="#999999" stroke-width="1" opacity="0.35" marker-end="url(#arrowhead)" />
    <path d="M 489 528 C 540.8 528, 585.2 748, 637 748" fill="none" stroke="#999999" stroke-width="1" opacity="0.35" marker-end="url(#arrowhead)" />
    <path d="M 489 528 C 660.64 528, 807.76 539, 979.4 539" fill="none" stroke="#999999" stroke-width="1" opacity="0.35" marker-end="url(#arrowhead)" />
    <path d="M 489 528 C 660.64 528, 807.76 469, 979.4 469" fill="none" stroke="#999999" stroke-width="1" opacity="0.35" marker-end="url(#arrowhead)" />
    <path d="M 489 598 C 660.64 598, 807.76 703, 979.4 703" fill="none" stroke="#999999" stroke-width="1" opacity="0.35" marker-end="url(#arrowhead)" />
    <path d="M 489 598 C 660.64 598, 807.76 867, 979.4 867" fill="none" stroke="#999999" stroke-width="1" opacity="0.35" marker-end="url(#arrowhead)" />
    <path d="M 489 598 C 660.64 598, 807.76 945, 979.4 945" fill="none" stroke="#999999" stroke-width="1" opacity="0.35" marker-end="url(#arrowhead)" />
    <path d="M 489 598 C 540.8 598, 585.2 748, 637 748" fill="none" stroke="#999999" stroke-width="1" opacity="0.35" marker-end="url(#arrowhead)" />
    <path d="M 489 598 C 660.64 598, 807.76 539, 979.4 539" fill="none" stroke="#999999" stroke-width="1" opacity="0.35" marker-end="url(#arrowhead)" />
    <path d="M 489 598 C 660.64 598, 807.76 469, 979.4 469" fill="none" stroke="#999999" stroke-width="1" opacity="0.35" marker-end="url(#arrowhead)" />
    <path d="M 489 668 C 660.64 668, 807.76 703, 979.4 703" fill="none" stroke="#999999" stroke-width="1" opacity="0.35" marker-end="url(#arrowhead)" />
    <path d="M 489 668 C 660.64 668, 807.76 867, 979.4 867" fill="none" stroke="#999999" stroke-width="1" opacity="0.35" marker-end="url(#arrowhead)" />
    <path d="M 489 668 C 660.64 668, 807.76 945, 979.4 945" fill="none" stroke="#999999" stroke-width="1" opacity="0.35" marker-end="url(#arrowhead)" />
    <path d="M 489 668 C 540.8 668, 585.2 748, 637 748" fill="none" stroke="#999999" stroke-width="1" opacity="0.35" marker-end="url(#arrowhead)" />
    <path d="M 489 668 C 660.64 668, 807.76 539, 979.4 539" fill="none" stroke="#999999" stroke-width="1" opacity="0.35" marker-end="url(#arrowhead)" />
    <path d="M 489 668 C 660.64 668, 807.76 469, 979.4 469" fill="none" stroke="#999999" stroke-width="1" opacity="0.35" marker-end="url(#arrowhead)" />
    <path d="M 394.7 766 C 394.7 790, 394.7 876, 394.7 852" fill="none" stroke="#999999" stroke-width="1" opacity="0.5" marker-end="url(#arrowhead)" />
    <path d="M 489 738 C 660.64 738, 807.76 703, 979.4 703" fill="none" stroke="#999999" stroke-width="1" opacity="0.35" marker-end="url(#arrowhead)" />
    <path d="M 489 738 C 660.64 738, 807.76 867, 979.4 867" fill="none" stroke="#999999" stroke-width="1" opacity="0.35" marker-end="url(#arrowhead)" />
    <path d="M 489 738 C 660.64 738, 807.76 945, 979.4 945" fill="none" stroke="#999999" stroke-width="1" opacity="0.35" marker-end="url(#arrowhead)" />
    <path d="M 489 738 C 540.8 738, 585.2 748, 637 748" fill="none" stroke="#999999" stroke-width="1" opacity="0.35" marker-end="url(#arrowhead)" />
    <path d="M 489 738 C 660.64 738, 807.76 539, 979.4 539" fill="none" stroke="#999999" stroke-width="1" opacity="0.35" marker-end="url(#arrowhead)" />
    <path d="M 489 738 C 660.64 738, 807.76 469, 979.4 469" fill="none" stroke="#999999" stroke-width="1" opacity="0.35" marker-end="url(#arrowhead)" />
    <path d="M 489 816 C 660.64 816, 807.76 703, 979.4 703" fill="none" stroke="#999999" stroke-width="1" opacity="0.35" marker-end="url(#arrowhead)" />
    <path d="M 489 816 C 660.64 816, 807.76 867, 979.4 867" fill="none" stroke="#999999" stroke-width="1" opacity="0.35" marker-end="url(#arrowhead)" />
    <path d="M 489 816 C 660.64 816, 807.76 945, 979.4 945" fill="none" stroke="#999999" stroke-width="1" opacity="0.35" marker-end="url(#arrowhead)" />
    <path d="M 489 816 C 540.8 816, 585.2 748, 637 748" fill="none" stroke="#999999" stroke-width="1" opacity="0.35" marker-end="url(#arrowhead)" />
    <path d="M 489 816 C 660.64 816, 807.76 539, 979.4 539" fill="none" stroke="#999999" stroke-width="1" opacity="0.35" marker-end="url(#arrowhead)" />
    <path d="M 489 816 C 660.64 816, 807.76 469, 979.4 469" fill="none" stroke="#999999" stroke-width="1" opacity="0.35" marker-end="url(#arrowhead)" />
  </g>
  <!-- Group labels -->
  <text x="394.7" y="484" text-anchor="middle" font-family="Inter, Helvetica, Arial, sans-serif" font-size="13" font-weight="600" fill="#71A255" letter-spacing="0.5">Entities</text>
  <text x="734.2" y="60" text-anchor="middle" font-family="Inter, Helvetica, Arial, sans-serif" font-size="13" font-weight="600" fill="#B8922E" letter-spacing="0.5">Guidelines</text>
  <text x="1073.7" y="355" text-anchor="middle" font-family="Inter, Helvetica, Arial, sans-serif" font-size="13" font-weight="600" fill="#5A7DAE" letter-spacing="0.5">Common</text>
  <!-- Nodes -->
  <rect x="40" y="648" width="136.39999999999998" height="56" rx="6" ry="6" fill="#4A4A4A" stroke="#333333" stroke-width="1.5" />
  <text x="108.19999999999999" y="670.8" text-anchor="middle" font-family="Inter, Helvetica, Arial, sans-serif" font-size="12" font-weight="700" fill="#FFFFFF">dsds</text>
  <text x="108.19999999999999" y="690.8" text-anchor="middle" font-family="Inter, Helvetica, Arial, sans-serif" font-size="10" font-style="italic" fill="#FFFFFF" opacity="0.85">documentationGroup</text>
  <rect x="300.4" y="500" width="188.6" height="56" rx="6" ry="6" fill="#82B366" stroke="#71A255" stroke-width="1.5" />
  <text x="394.7" y="522.8" text-anchor="middle" font-family="Inter, Helvetica, Arial, sans-serif" font-size="12" font-weight="700" fill="#FFFFFF">component</text>
  <text x="394.7" y="542.8" text-anchor="middle" font-family="Inter, Helvetica, Arial, sans-serif" font-size="10" font-style="italic" fill="#FFFFFF" opacity="0.85">component</text>
  <rect x="300.4" y="570" width="188.6" height="56" rx="6" ry="6" fill="#82B366" stroke="#71A255" stroke-width="1.5" />
  <text x="394.7" y="592.8" text-anchor="middle" font-family="Inter, Helvetica, Arial, sans-serif" font-size="12" font-weight="700" fill="#FFFFFF">pattern</text>
  <text x="394.7" y="612.8" text-anchor="middle" font-family="Inter, Helvetica, Arial, sans-serif" font-size="10" font-style="italic" fill="#FFFFFF" opacity="0.85">pattern</text>
  <rect x="300.4" y="640" width="188.6" height="56" rx="6" ry="6" fill="#82B366" stroke="#71A255" stroke-width="1.5" />
  <text x="394.7" y="662.8" text-anchor="middle" font-family="Inter, Helvetica, Arial, sans-serif" font-size="12" font-weight="700" fill="#FFFFFF">style</text>
  <text x="394.7" y="682.8" text-anchor="middle" font-family="Inter, Helvetica, Arial, sans-serif" font-size="10" font-style="italic" fill="#FFFFFF" opacity="0.85">style</text>
  <rect x="300.4" y="710" width="188.6" height="56" rx="6" ry="6" fill="#82B366" stroke="#71A255" stroke-width="1.5" />
  <text x="394.7" y="732.8" text-anchor="middle" font-family="Inter, Helvetica, Arial, sans-serif" font-size="12" font-weight="700" fill="#FFFFFF">theme</text>
  <text x="394.7" y="752.8" text-anchor="middle" font-family="Inter, Helvetica, Arial, sans-serif" font-size="10" font-style="italic" fill="#FFFFFF" opacity="0.85">tokenOverride, theme</text>
  <rect x="300.4" y="780" width="188.6" height="72" rx="6" ry="6" fill="#82B366" stroke="#71A255" stroke-width="1.5" />
  <text x="394.7" y="802.8" text-anchor="middle" font-family="Inter, Helvetica, Arial, sans-serif" font-size="12" font-weight="700" fill="#FFFFFF">token</text>
  <text x="394.7" y="822.8" text-anchor="middle" font-family="Inter, Helvetica, Arial, sans-serif" font-size="10" font-style="italic" fill="#FFFFFF" opacity="0.85">tokenValue, tokenApi, token</text>
  <text x="394.7" y="838.8" text-anchor="middle" font-family="Inter, Helvetica, Arial, sans-serif" font-size="10" font-style="italic" fill="#FFFFFF" opacity="0.85">tokenGroup</text>
  <rect x="637" y="76" width="194.4" height="88" rx="6" ry="6" fill="#D4A843" stroke="#C39732" stroke-width="1.5" />
  <text x="734.2" y="98.8" text-anchor="middle" font-family="Inter, Helvetica, Arial, sans-serif" font-size="12" font-weight="700" fill="#FFFFFF">accessibility</text>
  <text x="734.2" y="118.8" text-anchor="middle" font-family="Inter, Helvetica, Arial, sans-serif" font-size="10" font-style="italic" fill="#FFFFFF" opacity="0.85">keyboardInteraction</text>
  <text x="734.2" y="134.8" text-anchor="middle" font-family="Inter, Helvetica, Arial, sans-serif" font-size="10" font-style="italic" fill="#FFFFFF" opacity="0.85">ariaAttribute, colorContrast</text>
  <text x="734.2" y="150.8" text-anchor="middle" font-family="Inter, Helvetica, Arial, sans-serif" font-size="10" font-style="italic" fill="#FFFFFF" opacity="0.85">accessibility</text>
  <rect x="637" y="178" width="194.4" height="56" rx="6" ry="6" fill="#D4A843" stroke="#C39732" stroke-width="1.5" />
  <text x="734.2" y="200.8" text-anchor="middle" font-family="Inter, Helvetica, Arial, sans-serif" font-size="12" font-weight="700" fill="#FFFFFF">anatomy</text>
  <text x="734.2" y="220.8" text-anchor="middle" font-family="Inter, Helvetica, Arial, sans-serif" font-size="10" font-style="italic" fill="#FFFFFF" opacity="0.85">anatomyEntry, anatomy</text>
  <rect x="637" y="248" width="194.4" height="120" rx="6" ry="6" fill="#D4A843" stroke="#C39732" stroke-width="1.5" />
  <text x="734.2" y="270.8" text-anchor="middle" font-family="Inter, Helvetica, Arial, sans-serif" font-size="12" font-weight="700" fill="#FFFFFF">api</text>
  <text x="734.2" y="290.8" text-anchor="middle" font-family="Inter, Helvetica, Arial, sans-serif" font-size="10" font-style="italic" fill="#FFFFFF" opacity="0.85">apiProperty, apiEvent</text>
  <text x="734.2" y="306.8" text-anchor="middle" font-family="Inter, Helvetica, Arial, sans-serif" font-size="10" font-style="italic" fill="#FFFFFF" opacity="0.85">apiSlot</text>
  <text x="734.2" y="322.8" text-anchor="middle" font-family="Inter, Helvetica, Arial, sans-serif" font-size="10" font-style="italic" fill="#FFFFFF" opacity="0.85">apiCssCustomProperty</text>
  <text x="734.2" y="338.8" text-anchor="middle" font-family="Inter, Helvetica, Arial, sans-serif" font-size="10" font-style="italic" fill="#FFFFFF" opacity="0.85">apiCssPart, apiDataAttribute</text>
  <text x="734.2" y="354.8" text-anchor="middle" font-family="Inter, Helvetica, Arial, sans-serif" font-size="10" font-style="italic" fill="#FFFFFF" opacity="0.85">apiMethod, api</text>
  <rect x="637" y="382" width="194.4" height="72" rx="6" ry="6" fill="#D4A843" stroke="#C39732" stroke-width="1.5" />
  <text x="734.2" y="404.8" text-anchor="middle" font-family="Inter, Helvetica, Arial, sans-serif" font-size="12" font-weight="700" fill="#FFFFFF">best-practice</text>
  <text x="734.2" y="424.8" text-anchor="middle" font-family="Inter, Helvetica, Arial, sans-serif" font-size="10" font-style="italic" fill="#FFFFFF" opacity="0.85">bestPracticeEntry</text>
  <text x="734.2" y="440.8" text-anchor="middle" font-family="Inter, Helvetica, Arial, sans-serif" font-size="10" font-style="italic" fill="#FFFFFF" opacity="0.85">bestPractices</text>
  <rect x="637" y="468" width="194.4" height="72" rx="6" ry="6" fill="#D4A843" stroke="#C39732" stroke-width="1.5" />
  <text x="734.2" y="490.8" text-anchor="middle" font-family="Inter, Helvetica, Arial, sans-serif" font-size="12" font-weight="700" fill="#FFFFFF">content</text>
  <text x="734.2" y="510.8" text-anchor="middle" font-family="Inter, Helvetica, Arial, sans-serif" font-size="10" font-style="italic" fill="#FFFFFF" opacity="0.85">contentLabelEntry</text>
  <text x="734.2" y="526.8" text-anchor="middle" font-family="Inter, Helvetica, Arial, sans-serif" font-size="10" font-style="italic" fill="#FFFFFF" opacity="0.85">localizationEntry, content</text>
  <rect x="637" y="554" width="194.4" height="120" rx="6" ry="6" fill="#D4A843" stroke="#C39732" stroke-width="1.5" />
  <text x="734.2" y="576.8" text-anchor="middle" font-family="Inter, Helvetica, Arial, sans-serif" font-size="12" font-weight="700" fill="#FFFFFF">design-specifications</text>
  <text x="734.2" y="596.8" text-anchor="middle" font-family="Inter, Helvetica, Arial, sans-serif" font-size="10" font-style="italic" fill="#FFFFFF" opacity="0.85">spacingSpec, sizingSpec</text>
  <text x="734.2" y="612.8" text-anchor="middle" font-family="Inter, Helvetica, Arial, sans-serif" font-size="10" font-style="italic" fill="#FFFFFF" opacity="0.85">typographyEntrySpec</text>
  <text x="734.2" y="628.8" text-anchor="middle" font-family="Inter, Helvetica, Arial, sans-serif" font-size="10" font-style="italic" fill="#FFFFFF" opacity="0.85">typographySpec</text>
  <text x="734.2" y="644.8" text-anchor="middle" font-family="Inter, Helvetica, Arial, sans-serif" font-size="10" font-style="italic" fill="#FFFFFF" opacity="0.85">responsiveEntry</text>
  <text x="734.2" y="660.8" text-anchor="middle" font-family="Inter, Helvetica, Arial, sans-serif" font-size="10" font-style="italic" fill="#FFFFFF" opacity="0.85">designSpecifications</text>
  <rect x="637" y="688" width="194.4" height="120" rx="6" ry="6" fill="#D4A843" stroke="#C39732" stroke-width="1.5" />
  <text x="734.2" y="710.8" text-anchor="middle" font-family="Inter, Helvetica, Arial, sans-serif" font-size="12" font-weight="700" fill="#FFFFFF">guideline</text>
  <text x="734.2" y="730.8" text-anchor="middle" font-family="Inter, Helvetica, Arial, sans-serif" font-size="10" font-style="italic" fill="#FFFFFF" opacity="0.85">generalGuideline</text>
  <text x="734.2" y="746.8" text-anchor="middle" font-family="Inter, Helvetica, Arial, sans-serif" font-size="10" font-style="italic" fill="#FFFFFF" opacity="0.85">componentGuideline</text>
  <text x="734.2" y="762.8" text-anchor="middle" font-family="Inter, Helvetica, Arial, sans-serif" font-size="10" font-style="italic" fill="#FFFFFF" opacity="0.85">styleGuideline</text>
  <text x="734.2" y="778.8" text-anchor="middle" font-family="Inter, Helvetica, Arial, sans-serif" font-size="10" font-style="italic" fill="#FFFFFF" opacity="0.85">patternGuideline</text>
  <text x="734.2" y="794.8" text-anchor="middle" font-family="Inter, Helvetica, Arial, sans-serif" font-size="10" font-style="italic" fill="#FFFFFF" opacity="0.85">tokenGuideline</text>
  <rect x="637" y="822" width="194.4" height="72" rx="6" ry="6" fill="#D4A843" stroke="#C39732" stroke-width="1.5" />
  <text x="734.2" y="844.8" text-anchor="middle" font-family="Inter, Helvetica, Arial, sans-serif" font-size="12" font-weight="700" fill="#FFFFFF">interaction</text>
  <text x="734.2" y="864.8" text-anchor="middle" font-family="Inter, Helvetica, Arial, sans-serif" font-size="10" font-style="italic" fill="#FFFFFF" opacity="0.85">interactionEntry</text>
  <text x="734.2" y="880.8" text-anchor="middle" font-family="Inter, Helvetica, Arial, sans-serif" font-size="10" font-style="italic" fill="#FFFFFF" opacity="0.85">interactions</text>
  <rect x="637" y="908" width="194.4" height="72" rx="6" ry="6" fill="#D4A843" stroke="#C39732" stroke-width="1.5" />
  <text x="734.2" y="930.8" text-anchor="middle" font-family="Inter, Helvetica, Arial, sans-serif" font-size="12" font-weight="700" fill="#FFFFFF">motion</text>
  <text x="734.2" y="950.8" text-anchor="middle" font-family="Inter, Helvetica, Arial, sans-serif" font-size="10" font-style="italic" fill="#FFFFFF" opacity="0.85">motionDuration, motionEntry</text>
  <text x="734.2" y="966.8" text-anchor="middle" font-family="Inter, Helvetica, Arial, sans-serif" font-size="10" font-style="italic" fill="#FFFFFF" opacity="0.85">motion</text>
  <rect x="637" y="994" width="194.4" height="56" rx="6" ry="6" fill="#D4A843" stroke="#C39732" stroke-width="1.5" />
  <text x="734.2" y="1016.8" text-anchor="middle" font-family="Inter, Helvetica, Arial, sans-serif" font-size="12" font-weight="700" fill="#FFFFFF">principle</text>
  <text x="734.2" y="1036.8" text-anchor="middle" font-family="Inter, Helvetica, Arial, sans-serif" font-size="10" font-style="italic" fill="#FFFFFF" opacity="0.85">principleEntry, principles</text>
  <rect x="637" y="1064" width="194.4" height="56" rx="6" ry="6" fill="#D4A843" stroke="#C39732" stroke-width="1.5" />
  <text x="734.2" y="1086.8" text-anchor="middle" font-family="Inter, Helvetica, Arial, sans-serif" font-size="12" font-weight="700" fill="#FFFFFF">scale</text>
  <text x="734.2" y="1106.8" text-anchor="middle" font-family="Inter, Helvetica, Arial, sans-serif" font-size="10" font-style="italic" fill="#FFFFFF" opacity="0.85">scaleStep, scale</text>
  <rect x="637" y="1134" width="194.4" height="56" rx="6" ry="6" fill="#D4A843" stroke="#C39732" stroke-width="1.5" />
  <text x="734.2" y="1156.8" text-anchor="middle" font-family="Inter, Helvetica, Arial, sans-serif" font-size="12" font-weight="700" fill="#FFFFFF">state</text>
  <text x="734.2" y="1176.8" text-anchor="middle" font-family="Inter, Helvetica, Arial, sans-serif" font-size="10" font-style="italic" fill="#FFFFFF" opacity="0.85">stateEntry, states</text>
  <rect x="637" y="1204" width="194.4" height="72" rx="6" ry="6" fill="#D4A843" stroke="#C39732" stroke-width="1.5" />
  <text x="734.2" y="1226.8" text-anchor="middle" font-family="Inter, Helvetica, Arial, sans-serif" font-size="12" font-weight="700" fill="#FFFFFF">variant</text>
  <text x="734.2" y="1246.8" text-anchor="middle" font-family="Inter, Helvetica, Arial, sans-serif" font-size="10" font-style="italic" fill="#FFFFFF" opacity="0.85">variantValue, flagVariant</text>
  <text x="734.2" y="1262.8" text-anchor="middle" font-family="Inter, Helvetica, Arial, sans-serif" font-size="10" font-style="italic" fill="#FFFFFF" opacity="0.85">enumVariant, variants</text>
  <rect x="979.4" y="371" width="188.6" height="56" rx="6" ry="6" fill="#6C8EBF" stroke="#5A7DAE" stroke-width="1.5" />
  <text x="1073.7" y="393.8" text-anchor="middle" font-family="Inter, Helvetica, Arial, sans-serif" font-size="12" font-weight="700" fill="#FFFFFF">example</text>
  <text x="1073.7" y="413.8" text-anchor="middle" font-family="Inter, Helvetica, Arial, sans-serif" font-size="10" font-style="italic" fill="#FFFFFF" opacity="0.85">example</text>
  <rect x="979.4" y="441" width="188.6" height="56" rx="6" ry="6" fill="#6C8EBF" stroke="#5A7DAE" stroke-width="1.5" />
  <text x="1073.7" y="463.8" text-anchor="middle" font-family="Inter, Helvetica, Arial, sans-serif" font-size="12" font-weight="700" fill="#FFFFFF">extensions</text>
  <text x="1073.7" y="483.8" text-anchor="middle" font-family="Inter, Helvetica, Arial, sans-serif" font-size="10" font-style="italic" fill="#FFFFFF" opacity="0.85">extensions</text>
  <rect x="979.4" y="511" width="188.6" height="56" rx="6" ry="6" fill="#6C8EBF" stroke="#5A7DAE" stroke-width="1.5" />
  <text x="1073.7" y="533.8" text-anchor="middle" font-family="Inter, Helvetica, Arial, sans-serif" font-size="12" font-weight="700" fill="#FFFFFF">link</text>
  <text x="1073.7" y="553.8" text-anchor="middle" font-family="Inter, Helvetica, Arial, sans-serif" font-size="10" font-style="italic" fill="#FFFFFF" opacity="0.85">link</text>
  <rect x="979.4" y="581" width="188.6" height="56" rx="6" ry="6" fill="#6C8EBF" stroke="#5A7DAE" stroke-width="1.5" />
  <text x="1073.7" y="603.8" text-anchor="middle" font-family="Inter, Helvetica, Arial, sans-serif" font-size="12" font-weight="700" fill="#FFFFFF">metadata</text>
  <text x="1073.7" y="623.8" text-anchor="middle" font-family="Inter, Helvetica, Arial, sans-serif" font-size="10" font-style="italic" fill="#FFFFFF" opacity="0.85">metadata</text>
  <rect x="979.4" y="651" width="188.6" height="104" rx="6" ry="6" fill="#6C8EBF" stroke="#5A7DAE" stroke-width="1.5" />
  <text x="1073.7" y="673.8" text-anchor="middle" font-family="Inter, Helvetica, Arial, sans-serif" font-size="12" font-weight="700" fill="#FFFFFF">presentation</text>
  <text x="1073.7" y="693.8" text-anchor="middle" font-family="Inter, Helvetica, Arial, sans-serif" font-size="10" font-style="italic" fill="#FFFFFF" opacity="0.85">presentationImage</text>
  <text x="1073.7" y="709.8" text-anchor="middle" font-family="Inter, Helvetica, Arial, sans-serif" font-size="10" font-style="italic" fill="#FFFFFF" opacity="0.85">presentationVideo</text>
  <text x="1073.7" y="725.8" text-anchor="middle" font-family="Inter, Helvetica, Arial, sans-serif" font-size="10" font-style="italic" fill="#FFFFFF" opacity="0.85">presentationCode</text>
  <text x="1073.7" y="741.8" text-anchor="middle" font-family="Inter, Helvetica, Arial, sans-serif" font-size="10" font-style="italic" fill="#FFFFFF" opacity="0.85">presentationUrl</text>
  <rect x="979.4" y="769" width="188.6" height="56" rx="6" ry="6" fill="#6C8EBF" stroke="#5A7DAE" stroke-width="1.5" />
  <text x="1073.7" y="791.8" text-anchor="middle" font-family="Inter, Helvetica, Arial, sans-serif" font-size="12" font-weight="700" fill="#FFFFFF">purpose</text>
  <text x="1073.7" y="811.8" text-anchor="middle" font-family="Inter, Helvetica, Arial, sans-serif" font-size="10" font-style="italic" fill="#FFFFFF" opacity="0.85">useCase, purpose</text>
  <rect x="979.4" y="839" width="188.6" height="56" rx="6" ry="6" fill="#6C8EBF" stroke="#5A7DAE" stroke-width="1.5" />
  <text x="1073.7" y="861.8" text-anchor="middle" font-family="Inter, Helvetica, Arial, sans-serif" font-size="12" font-weight="700" fill="#FFFFFF">rich-text</text>
  <text x="1073.7" y="881.8" text-anchor="middle" font-family="Inter, Helvetica, Arial, sans-serif" font-size="10" font-style="italic" fill="#FFFFFF" opacity="0.85">richText</text>
  <rect x="979.4" y="909" width="188.6" height="72" rx="6" ry="6" fill="#6C8EBF" stroke="#5A7DAE" stroke-width="1.5" />
  <text x="1073.7" y="931.8" text-anchor="middle" font-family="Inter, Helvetica, Arial, sans-serif" font-size="12" font-weight="700" fill="#FFFFFF">status</text>
  <text x="1073.7" y="951.8" text-anchor="middle" font-family="Inter, Helvetica, Arial, sans-serif" font-size="10" font-style="italic" fill="#FFFFFF" opacity="0.85">statusValue, platformStatus</text>
  <text x="1073.7" y="967.8" text-anchor="middle" font-family="Inter, Helvetica, Arial, sans-serif" font-size="10" font-style="italic" fill="#FFFFFF" opacity="0.85">statusObject, status</text>
</svg>
