<svg xmlns="http://www.w3.org/2000/svg" width="1095.4" height="1352" viewBox="0 0 1095.4 1352">
  <rect x="0" y="0" width="1095.4" height="1352" fill="#FFFFFF" />
  <defs>
    <marker id="arrowhead" markerWidth="12" markerHeight="12" refX="6" refY="3" orient="auto" markerUnits="userSpaceOnUse">
      <polygon points="0 0, 6 3, 0 6" fill="#999999" />
    </marker>
  </defs>
  <!-- Edges -->
  <g>
    <path d="M 176.39999999999998 676 C 256.4 676, 320.4 851, 400.4 851" fill="none" stroke="#999999" stroke-width="1" opacity="0.4" marker-end="url(#arrowhead)" />
    <path d="M 176.39999999999998 676 C 256.4 676, 320.4 711, 400.4 711" fill="none" stroke="#999999" stroke-width="1" opacity="0.4" marker-end="url(#arrowhead)" />
    <path d="M 176.39999999999998 676 C 256.4 676, 320.4 1109, 400.4 1109" fill="none" stroke="#999999" stroke-width="1" opacity="0.4" marker-end="url(#arrowhead)" />
    <path d="M 176.39999999999998 676 C 256.4 676, 320.4 157, 400.4 157" fill="none" stroke="#999999" stroke-width="1" opacity="0.4" marker-end="url(#arrowhead)" />
    <path d="M 176.39999999999998 676 C 256.4 676, 320.4 445, 400.4 445" fill="none" stroke="#999999" stroke-width="1" opacity="0.4" marker-end="url(#arrowhead)" />
    <path d="M 176.39999999999998 676 C 256.4 676, 320.4 367, 400.4 367" fill="none" stroke="#999999" stroke-width="1" opacity="0.4" marker-end="url(#arrowhead)" />
    <path d="M 176.39999999999998 676 C 256.4 676, 320.4 297, 400.4 297" fill="none" stroke="#999999" stroke-width="1" opacity="0.4" marker-end="url(#arrowhead)" />
    <path d="M 176.39999999999998 676 C 256.4 676, 320.4 227, 400.4 227" fill="none" stroke="#999999" stroke-width="1" opacity="0.4" marker-end="url(#arrowhead)" />
    <path d="M 589 641 C 669 641, 669 945, 589 945" fill="none" stroke="#999999" stroke-width="1" opacity="0.4" marker-end="url(#arrowhead)" />
    <path d="M 589 1039 C 617 1039, 617 1109, 589 1109" fill="none" stroke="#999999" stroke-width="1" opacity="0.4" marker-end="url(#arrowhead)" />
    <path d="M 837 120 C 757 120, 669 1109, 589 1109" fill="none" stroke="#999999" stroke-width="1" opacity="0.4" marker-end="url(#arrowhead)" />
    <path d="M 837 206 C 757 206, 669 1109, 589 1109" fill="none" stroke="#999999" stroke-width="1" opacity="0.4" marker-end="url(#arrowhead)" />
    <path d="M 837 206 C 757 206, 669 781, 589 781" fill="none" stroke="#999999" stroke-width="1" opacity="0.4" marker-end="url(#arrowhead)" />
    <path d="M 837 206 C 757 206, 669 641, 589 641" fill="none" stroke="#999999" stroke-width="1" opacity="0.4" marker-end="url(#arrowhead)" />
    <path d="M 837 308 C 757 308, 669 1109, 589 1109" fill="none" stroke="#999999" stroke-width="1" opacity="0.4" marker-end="url(#arrowhead)" />
    <path d="M 837 308 C 757 308, 669 641, 589 641" fill="none" stroke="#999999" stroke-width="1" opacity="0.4" marker-end="url(#arrowhead)" />
    <path d="M 837 418 C 757 418, 669 1109, 589 1109" fill="none" stroke="#999999" stroke-width="1" opacity="0.4" marker-end="url(#arrowhead)" />
    <path d="M 837 418 C 757 418, 669 641, 589 641" fill="none" stroke="#999999" stroke-width="1" opacity="0.4" marker-end="url(#arrowhead)" />
    <path d="M 837 504 C 757 504, 669 1109, 589 1109" fill="none" stroke="#999999" stroke-width="1" opacity="0.4" marker-end="url(#arrowhead)" />
    <path d="M 837 504 C 757 504, 669 641, 589 641" fill="none" stroke="#999999" stroke-width="1" opacity="0.4" marker-end="url(#arrowhead)" />
    <path d="M 837 614 C 757 614, 669 1109, 589 1109" fill="none" stroke="#999999" stroke-width="1" opacity="0.4" marker-end="url(#arrowhead)" />
    <path d="M 1031.4 748 C 1111.4 748, 1111.4 418, 1031.4 418" fill="none" stroke="#999999" stroke-width="1" opacity="0.4" marker-end="url(#arrowhead)" />
    <path d="M 837 748 C 757 748, 669 1039, 589 1039" fill="none" stroke="#999999" stroke-width="1" opacity="0.4" marker-end="url(#arrowhead)" />
    <path d="M 1031.4 748 C 1111.4 748, 1111.4 120, 1031.4 120" fill="none" stroke="#999999" stroke-width="1" opacity="0.4" marker-end="url(#arrowhead)" />
    <path d="M 1031.4 748 C 1111.4 748, 1111.4 504, 1031.4 504" fill="none" stroke="#999999" stroke-width="1" opacity="0.4" marker-end="url(#arrowhead)" />
    <path d="M 1031.4 748 C 1111.4 748, 1111.4 206, 1031.4 206" fill="none" stroke="#999999" stroke-width="1" opacity="0.4" marker-end="url(#arrowhead)" />
    <path d="M 1031.4 748 C 1111.4 748, 1111.4 308, 1031.4 308" fill="none" stroke="#999999" stroke-width="1" opacity="0.4" marker-end="url(#arrowhead)" />
    <path d="M 1031.4 748 C 1111.4 748, 1111.4 1240, 1031.4 1240" fill="none" stroke="#999999" stroke-width="1" opacity="0.4" marker-end="url(#arrowhead)" />
    <path d="M 1031.4 748 C 1111.4 748, 1111.4 1162, 1031.4 1162" fill="none" stroke="#999999" stroke-width="1" opacity="0.4" marker-end="url(#arrowhead)" />
    <path d="M 1031.4 748 C 1085 748, 1085 614, 1031.4 614" fill="none" stroke="#999999" stroke-width="1" opacity="0.4" marker-end="url(#arrowhead)" />
    <path d="M 1031.4 748 C 1111.4 748, 1111.4 1022, 1031.4 1022" fill="none" stroke="#999999" stroke-width="1" opacity="0.4" marker-end="url(#arrowhead)" />
    <path d="M 1031.4 748 C 1111.4 748, 1111.4 1092, 1031.4 1092" fill="none" stroke="#999999" stroke-width="1" opacity="0.4" marker-end="url(#arrowhead)" />
    <path d="M 1031.4 748 C 1109.8000000000002 748, 1109.8000000000002 944, 1031.4 944" fill="none" stroke="#999999" stroke-width="1" opacity="0.4" marker-end="url(#arrowhead)" />
    <path d="M 1031.4 748 C 1075.4 748, 1075.4 858, 1031.4 858" fill="none" stroke="#999999" stroke-width="1" opacity="0.4" marker-end="url(#arrowhead)" />
    <path d="M 837 858 C 757 858, 669 1109, 589 1109" fill="none" stroke="#999999" stroke-width="1" opacity="0.4" marker-end="url(#arrowhead)" />
    <path d="M 837 858 C 757 858, 669 641, 589 641" fill="none" stroke="#999999" stroke-width="1" opacity="0.4" marker-end="url(#arrowhead)" />
    <path d="M 837 944 C 757 944, 669 1109, 589 1109" fill="none" stroke="#999999" stroke-width="1" opacity="0.4" marker-end="url(#arrowhead)" />
    <path d="M 837 944 C 757 944, 669 641, 589 641" fill="none" stroke="#999999" stroke-width="1" opacity="0.4" marker-end="url(#arrowhead)" />
    <path d="M 837 1022 C 757 1022, 669 1109, 589 1109" fill="none" stroke="#999999" stroke-width="1" opacity="0.4" marker-end="url(#arrowhead)" />
    <path d="M 837 1092 C 757 1092, 669 1109, 589 1109" fill="none" stroke="#999999" stroke-width="1" opacity="0.4" marker-end="url(#arrowhead)" />
    <path d="M 837 1162 C 757 1162, 669 1109, 589 1109" fill="none" stroke="#999999" stroke-width="1" opacity="0.4" marker-end="url(#arrowhead)" />
    <path d="M 837 1162 C 757 1162, 669 1039, 589 1039" fill="none" stroke="#999999" stroke-width="1" opacity="0.4" marker-end="url(#arrowhead)" />
    <path d="M 837 1162 C 757 1162, 669 641, 589 641" fill="none" stroke="#999999" stroke-width="1" opacity="0.4" marker-end="url(#arrowhead)" />
    <path d="M 837 1240 C 757 1240, 669 1109, 589 1109" fill="none" stroke="#999999" stroke-width="1" opacity="0.4" marker-end="url(#arrowhead)" />
    <path d="M 837 1240 C 757 1240, 669 1039, 589 1039" fill="none" stroke="#999999" stroke-width="1" opacity="0.4" marker-end="url(#arrowhead)" />
    <path d="M 837 1240 C 757 1240, 669 641, 589 641" fill="none" stroke="#999999" stroke-width="1" opacity="0.4" marker-end="url(#arrowhead)" />
    <path d="M 589 157 C 669 157, 669 945, 589 945" fill="none" stroke="#999999" stroke-width="1" opacity="0.4" marker-end="url(#arrowhead)" />
    <path d="M 589 157 C 669 157, 669 1109, 589 1109" fill="none" stroke="#999999" stroke-width="1" opacity="0.4" marker-end="url(#arrowhead)" />
    <path d="M 589 157 C 669 157, 669 1187, 589 1187" fill="none" stroke="#999999" stroke-width="1" opacity="0.4" marker-end="url(#arrowhead)" />
    <path d="M 589 157 C 669 157, 757 748, 837 748" fill="none" stroke="#999999" stroke-width="1" opacity="0.4" marker-end="url(#arrowhead)" />
    <path d="M 589 157 C 669 157, 669 781, 589 781" fill="none" stroke="#999999" stroke-width="1" opacity="0.4" marker-end="url(#arrowhead)" />
    <path d="M 589 157 C 669 157, 669 711, 589 711" fill="none" stroke="#999999" stroke-width="1" opacity="0.4" marker-end="url(#arrowhead)" />
    <path d="M 589 227 C 669 227, 669 945, 589 945" fill="none" stroke="#999999" stroke-width="1" opacity="0.4" marker-end="url(#arrowhead)" />
    <path d="M 589 227 C 669 227, 669 1109, 589 1109" fill="none" stroke="#999999" stroke-width="1" opacity="0.4" marker-end="url(#arrowhead)" />
    <path d="M 589 227 C 669 227, 669 1187, 589 1187" fill="none" stroke="#999999" stroke-width="1" opacity="0.4" marker-end="url(#arrowhead)" />
    <path d="M 589 227 C 669 227, 757 748, 837 748" fill="none" stroke="#999999" stroke-width="1" opacity="0.4" marker-end="url(#arrowhead)" />
    <path d="M 589 227 C 669 227, 669 781, 589 781" fill="none" stroke="#999999" stroke-width="1" opacity="0.4" marker-end="url(#arrowhead)" />
    <path d="M 589 227 C 669 227, 669 711, 589 711" fill="none" stroke="#999999" stroke-width="1" opacity="0.4" marker-end="url(#arrowhead)" />
    <path d="M 589 297 C 669 297, 669 945, 589 945" fill="none" stroke="#999999" stroke-width="1" opacity="0.4" marker-end="url(#arrowhead)" />
    <path d="M 589 297 C 669 297, 669 1109, 589 1109" fill="none" stroke="#999999" stroke-width="1" opacity="0.4" marker-end="url(#arrowhead)" />
    <path d="M 589 297 C 669 297, 669 1187, 589 1187" fill="none" stroke="#999999" stroke-width="1" opacity="0.4" marker-end="url(#arrowhead)" />
    <path d="M 589 297 C 669 297, 757 748, 837 748" fill="none" stroke="#999999" stroke-width="1" opacity="0.4" marker-end="url(#arrowhead)" />
    <path d="M 589 297 C 669 297, 669 781, 589 781" fill="none" stroke="#999999" stroke-width="1" opacity="0.4" marker-end="url(#arrowhead)" />
    <path d="M 589 297 C 669 297, 669 711, 589 711" fill="none" stroke="#999999" stroke-width="1" opacity="0.4" marker-end="url(#arrowhead)" />
    <path d="M 589 367 C 620.2 367, 620.2 445, 589 445" fill="none" stroke="#999999" stroke-width="1" opacity="0.4" marker-end="url(#arrowhead)" />
    <path d="M 589 367 C 669 367, 669 945, 589 945" fill="none" stroke="#999999" stroke-width="1" opacity="0.4" marker-end="url(#arrowhead)" />
    <path d="M 589 367 C 669 367, 669 1109, 589 1109" fill="none" stroke="#999999" stroke-width="1" opacity="0.4" marker-end="url(#arrowhead)" />
    <path d="M 589 367 C 669 367, 669 1187, 589 1187" fill="none" stroke="#999999" stroke-width="1" opacity="0.4" marker-end="url(#arrowhead)" />
    <path d="M 589 367 C 669 367, 757 748, 837 748" fill="none" stroke="#999999" stroke-width="1" opacity="0.4" marker-end="url(#arrowhead)" />
    <path d="M 589 367 C 669 367, 669 781, 589 781" fill="none" stroke="#999999" stroke-width="1" opacity="0.4" marker-end="url(#arrowhead)" />
    <path d="M 589 367 C 669 367, 669 711, 589 711" fill="none" stroke="#999999" stroke-width="1" opacity="0.4" marker-end="url(#arrowhead)" />
    <path d="M 589 445 C 669 445, 669 945, 589 945" fill="none" stroke="#999999" stroke-width="1" opacity="0.4" marker-end="url(#arrowhead)" />
    <path d="M 589 445 C 669 445, 669 1109, 589 1109" fill="none" stroke="#999999" stroke-width="1" opacity="0.4" marker-end="url(#arrowhead)" />
    <path d="M 589 445 C 669 445, 669 1187, 589 1187" fill="none" stroke="#999999" stroke-width="1" opacity="0.4" marker-end="url(#arrowhead)" />
    <path d="M 589 445 C 669 445, 757 748, 837 748" fill="none" stroke="#999999" stroke-width="1" opacity="0.4" marker-end="url(#arrowhead)" />
    <path d="M 589 445 C 669 445, 669 781, 589 781" fill="none" stroke="#999999" stroke-width="1" opacity="0.4" marker-end="url(#arrowhead)" />
    <path d="M 589 445 C 669 445, 669 711, 589 711" fill="none" stroke="#999999" stroke-width="1" opacity="0.4" marker-end="url(#arrowhead)" />
  </g>
  <!-- Group labels -->
  <text x="494.7" y="113" text-anchor="middle" font-family="Inter, Helvetica, Arial, sans-serif" font-size="13" font-weight="600" fill="#71A255" letter-spacing="0.5">Entities</text>
  <text x="494.7" y="597" text-anchor="middle" font-family="Inter, Helvetica, Arial, sans-serif" font-size="13" font-weight="600" fill="#5A7DAE" letter-spacing="0.5">Common</text>
  <text x="934.2" y="60" text-anchor="middle" font-family="Inter, Helvetica, Arial, sans-serif" font-size="13" font-weight="600" fill="#B8922E" letter-spacing="0.5">Guidelines</text>
  <!-- Nodes -->
  <rect x="40" y="648" width="136.39999999999998" height="56" rx="6" ry="6" fill="#4A4A4A" stroke="#333333" stroke-width="1.5" />
  <text x="108.19999999999999" y="670.8" text-anchor="middle" font-family="Inter, Helvetica, Arial, sans-serif" font-size="12" font-weight="700" fill="#FFFFFF">dsds</text>
  <text x="108.19999999999999" y="690.8" text-anchor="middle" font-family="Inter, Helvetica, Arial, sans-serif" font-size="10" font-style="italic" fill="#FFFFFF" opacity="0.85">documentationGroup</text>
  <rect x="400.4" y="129" width="188.6" height="56" rx="6" ry="6" fill="#82B366" stroke="#71A255" stroke-width="1.5" />
  <text x="494.7" y="151.8" text-anchor="middle" font-family="Inter, Helvetica, Arial, sans-serif" font-size="12" font-weight="700" fill="#FFFFFF">component</text>
  <text x="494.7" y="171.8" text-anchor="middle" font-family="Inter, Helvetica, Arial, sans-serif" font-size="10" font-style="italic" fill="#FFFFFF" opacity="0.85">component</text>
  <rect x="400.4" y="199" width="188.6" height="56" rx="6" ry="6" fill="#82B366" stroke="#71A255" stroke-width="1.5" />
  <text x="494.7" y="221.8" text-anchor="middle" font-family="Inter, Helvetica, Arial, sans-serif" font-size="12" font-weight="700" fill="#FFFFFF">pattern</text>
  <text x="494.7" y="241.8" text-anchor="middle" font-family="Inter, Helvetica, Arial, sans-serif" font-size="10" font-style="italic" fill="#FFFFFF" opacity="0.85">pattern</text>
  <rect x="400.4" y="269" width="188.6" height="56" rx="6" ry="6" fill="#82B366" stroke="#71A255" stroke-width="1.5" />
  <text x="494.7" y="291.8" text-anchor="middle" font-family="Inter, Helvetica, Arial, sans-serif" font-size="12" font-weight="700" fill="#FFFFFF">style</text>
  <text x="494.7" y="311.8" text-anchor="middle" font-family="Inter, Helvetica, Arial, sans-serif" font-size="10" font-style="italic" fill="#FFFFFF" opacity="0.85">style</text>
  <rect x="400.4" y="339" width="188.6" height="56" rx="6" ry="6" fill="#82B366" stroke="#71A255" stroke-width="1.5" />
  <text x="494.7" y="361.8" text-anchor="middle" font-family="Inter, Helvetica, Arial, sans-serif" font-size="12" font-weight="700" fill="#FFFFFF">theme</text>
  <text x="494.7" y="381.8" text-anchor="middle" font-family="Inter, Helvetica, Arial, sans-serif" font-size="10" font-style="italic" fill="#FFFFFF" opacity="0.85">tokenOverride, theme</text>
  <rect x="400.4" y="409" width="188.6" height="72" rx="6" ry="6" fill="#82B366" stroke="#71A255" stroke-width="1.5" />
  <text x="494.7" y="431.8" text-anchor="middle" font-family="Inter, Helvetica, Arial, sans-serif" font-size="12" font-weight="700" fill="#FFFFFF">token</text>
  <text x="494.7" y="451.8" text-anchor="middle" font-family="Inter, Helvetica, Arial, sans-serif" font-size="10" font-style="italic" fill="#FFFFFF" opacity="0.85">tokenValue, tokenApi, token</text>
  <text x="494.7" y="467.8" text-anchor="middle" font-family="Inter, Helvetica, Arial, sans-serif" font-size="10" font-style="italic" fill="#FFFFFF" opacity="0.85">tokenGroup</text>
  <rect x="400.4" y="613" width="188.6" height="56" rx="6" ry="6" fill="#6C8EBF" stroke="#5A7DAE" stroke-width="1.5" />
  <text x="494.7" y="635.8" text-anchor="middle" font-family="Inter, Helvetica, Arial, sans-serif" font-size="12" font-weight="700" fill="#FFFFFF">example</text>
  <text x="494.7" y="655.8" text-anchor="middle" font-family="Inter, Helvetica, Arial, sans-serif" font-size="10" font-style="italic" fill="#FFFFFF" opacity="0.85">example</text>
  <rect x="400.4" y="683" width="188.6" height="56" rx="6" ry="6" fill="#6C8EBF" stroke="#5A7DAE" stroke-width="1.5" />
  <text x="494.7" y="705.8" text-anchor="middle" font-family="Inter, Helvetica, Arial, sans-serif" font-size="12" font-weight="700" fill="#FFFFFF">extensions</text>
  <text x="494.7" y="725.8" text-anchor="middle" font-family="Inter, Helvetica, Arial, sans-serif" font-size="10" font-style="italic" fill="#FFFFFF" opacity="0.85">extensions</text>
  <rect x="400.4" y="753" width="188.6" height="56" rx="6" ry="6" fill="#6C8EBF" stroke="#5A7DAE" stroke-width="1.5" />
  <text x="494.7" y="775.8" text-anchor="middle" font-family="Inter, Helvetica, Arial, sans-serif" font-size="12" font-weight="700" fill="#FFFFFF">link</text>
  <text x="494.7" y="795.8" text-anchor="middle" font-family="Inter, Helvetica, Arial, sans-serif" font-size="10" font-style="italic" fill="#FFFFFF" opacity="0.85">link</text>
  <rect x="400.4" y="823" width="188.6" height="56" rx="6" ry="6" fill="#6C8EBF" stroke="#5A7DAE" stroke-width="1.5" />
  <text x="494.7" y="845.8" text-anchor="middle" font-family="Inter, Helvetica, Arial, sans-serif" font-size="12" font-weight="700" fill="#FFFFFF">metadata</text>
  <text x="494.7" y="865.8" text-anchor="middle" font-family="Inter, Helvetica, Arial, sans-serif" font-size="10" font-style="italic" fill="#FFFFFF" opacity="0.85">metadata</text>
  <rect x="400.4" y="893" width="188.6" height="104" rx="6" ry="6" fill="#6C8EBF" stroke="#5A7DAE" stroke-width="1.5" />
  <text x="494.7" y="915.8" text-anchor="middle" font-family="Inter, Helvetica, Arial, sans-serif" font-size="12" font-weight="700" fill="#FFFFFF">presentation</text>
  <text x="494.7" y="935.8" text-anchor="middle" font-family="Inter, Helvetica, Arial, sans-serif" font-size="10" font-style="italic" fill="#FFFFFF" opacity="0.85">presentationImage</text>
  <text x="494.7" y="951.8" text-anchor="middle" font-family="Inter, Helvetica, Arial, sans-serif" font-size="10" font-style="italic" fill="#FFFFFF" opacity="0.85">presentationVideo</text>
  <text x="494.7" y="967.8" text-anchor="middle" font-family="Inter, Helvetica, Arial, sans-serif" font-size="10" font-style="italic" fill="#FFFFFF" opacity="0.85">presentationCode</text>
  <text x="494.7" y="983.8" text-anchor="middle" font-family="Inter, Helvetica, Arial, sans-serif" font-size="10" font-style="italic" fill="#FFFFFF" opacity="0.85">presentationUrl</text>
  <rect x="400.4" y="1011" width="188.6" height="56" rx="6" ry="6" fill="#6C8EBF" stroke="#5A7DAE" stroke-width="1.5" />
  <text x="494.7" y="1033.8" text-anchor="middle" font-family="Inter, Helvetica, Arial, sans-serif" font-size="12" font-weight="700" fill="#FFFFFF">purpose</text>
  <text x="494.7" y="1053.8" text-anchor="middle" font-family="Inter, Helvetica, Arial, sans-serif" font-size="10" font-style="italic" fill="#FFFFFF" opacity="0.85">useCase, purpose</text>
  <rect x="400.4" y="1081" width="188.6" height="56" rx="6" ry="6" fill="#6C8EBF" stroke="#5A7DAE" stroke-width="1.5" />
  <text x="494.7" y="1103.8" text-anchor="middle" font-family="Inter, Helvetica, Arial, sans-serif" font-size="12" font-weight="700" fill="#FFFFFF">rich-text</text>
  <text x="494.7" y="1123.8" text-anchor="middle" font-family="Inter, Helvetica, Arial, sans-serif" font-size="10" font-style="italic" fill="#FFFFFF" opacity="0.85">richText</text>
  <rect x="400.4" y="1151" width="188.6" height="72" rx="6" ry="6" fill="#6C8EBF" stroke="#5A7DAE" stroke-width="1.5" />
  <text x="494.7" y="1173.8" text-anchor="middle" font-family="Inter, Helvetica, Arial, sans-serif" font-size="12" font-weight="700" fill="#FFFFFF">status</text>
  <text x="494.7" y="1193.8" text-anchor="middle" font-family="Inter, Helvetica, Arial, sans-serif" font-size="10" font-style="italic" fill="#FFFFFF" opacity="0.85">statusValue, platformStatus</text>
  <text x="494.7" y="1209.8" text-anchor="middle" font-family="Inter, Helvetica, Arial, sans-serif" font-size="10" font-style="italic" fill="#FFFFFF" opacity="0.85">statusObject, status</text>
  <rect x="837" y="76" width="194.4" height="88" rx="6" ry="6" fill="#D4A843" stroke="#C39732" stroke-width="1.5" />
  <text x="934.2" y="98.8" text-anchor="middle" font-family="Inter, Helvetica, Arial, sans-serif" font-size="12" font-weight="700" fill="#FFFFFF">accessibility</text>
  <text x="934.2" y="118.8" text-anchor="middle" font-family="Inter, Helvetica, Arial, sans-serif" font-size="10" font-style="italic" fill="#FFFFFF" opacity="0.85">keyboardInteraction</text>
  <text x="934.2" y="134.8" text-anchor="middle" font-family="Inter, Helvetica, Arial, sans-serif" font-size="10" font-style="italic" fill="#FFFFFF" opacity="0.85">ariaAttribute, colorContrast</text>
  <text x="934.2" y="150.8" text-anchor="middle" font-family="Inter, Helvetica, Arial, sans-serif" font-size="10" font-style="italic" fill="#FFFFFF" opacity="0.85">accessibility</text>
  <rect x="837" y="178" width="194.4" height="56" rx="6" ry="6" fill="#D4A843" stroke="#C39732" stroke-width="1.5" />
  <text x="934.2" y="200.8" text-anchor="middle" font-family="Inter, Helvetica, Arial, sans-serif" font-size="12" font-weight="700" fill="#FFFFFF">anatomy</text>
  <text x="934.2" y="220.8" text-anchor="middle" font-family="Inter, Helvetica, Arial, sans-serif" font-size="10" font-style="italic" fill="#FFFFFF" opacity="0.85">anatomyEntry, anatomy</text>
  <rect x="837" y="248" width="194.4" height="120" rx="6" ry="6" fill="#D4A843" stroke="#C39732" stroke-width="1.5" />
  <text x="934.2" y="270.8" text-anchor="middle" font-family="Inter, Helvetica, Arial, sans-serif" font-size="12" font-weight="700" fill="#FFFFFF">api</text>
  <text x="934.2" y="290.8" text-anchor="middle" font-family="Inter, Helvetica, Arial, sans-serif" font-size="10" font-style="italic" fill="#FFFFFF" opacity="0.85">apiProperty, apiEvent</text>
  <text x="934.2" y="306.8" text-anchor="middle" font-family="Inter, Helvetica, Arial, sans-serif" font-size="10" font-style="italic" fill="#FFFFFF" opacity="0.85">apiSlot</text>
  <text x="934.2" y="322.8" text-anchor="middle" font-family="Inter, Helvetica, Arial, sans-serif" font-size="10" font-style="italic" fill="#FFFFFF" opacity="0.85">apiCssCustomProperty</text>
  <text x="934.2" y="338.8" text-anchor="middle" font-family="Inter, Helvetica, Arial, sans-serif" font-size="10" font-style="italic" fill="#FFFFFF" opacity="0.85">apiCssPart, apiDataAttribute</text>
  <text x="934.2" y="354.8" text-anchor="middle" font-family="Inter, Helvetica, Arial, sans-serif" font-size="10" font-style="italic" fill="#FFFFFF" opacity="0.85">apiMethod, api</text>
  <rect x="837" y="382" width="194.4" height="72" rx="6" ry="6" fill="#D4A843" stroke="#C39732" stroke-width="1.5" />
  <text x="934.2" y="404.8" text-anchor="middle" font-family="Inter, Helvetica, Arial, sans-serif" font-size="12" font-weight="700" fill="#FFFFFF">best-practice</text>
  <text x="934.2" y="424.8" text-anchor="middle" font-family="Inter, Helvetica, Arial, sans-serif" font-size="10" font-style="italic" fill="#FFFFFF" opacity="0.85">bestPracticeEntry</text>
  <text x="934.2" y="440.8" text-anchor="middle" font-family="Inter, Helvetica, Arial, sans-serif" font-size="10" font-style="italic" fill="#FFFFFF" opacity="0.85">bestPractices</text>
  <rect x="837" y="468" width="194.4" height="72" rx="6" ry="6" fill="#D4A843" stroke="#C39732" stroke-width="1.5" />
  <text x="934.2" y="490.8" text-anchor="middle" font-family="Inter, Helvetica, Arial, sans-serif" font-size="12" font-weight="700" fill="#FFFFFF">content</text>
  <text x="934.2" y="510.8" text-anchor="middle" font-family="Inter, Helvetica, Arial, sans-serif" font-size="10" font-style="italic" fill="#FFFFFF" opacity="0.85">contentLabelEntry</text>
  <text x="934.2" y="526.8" text-anchor="middle" font-family="Inter, Helvetica, Arial, sans-serif" font-size="10" font-style="italic" fill="#FFFFFF" opacity="0.85">localizationEntry, content</text>
  <rect x="837" y="554" width="194.4" height="120" rx="6" ry="6" fill="#D4A843" stroke="#C39732" stroke-width="1.5" />
  <text x="934.2" y="576.8" text-anchor="middle" font-family="Inter, Helvetica, Arial, sans-serif" font-size="12" font-weight="700" fill="#FFFFFF">design-specifications</text>
  <text x="934.2" y="596.8" text-anchor="middle" font-family="Inter, Helvetica, Arial, sans-serif" font-size="10" font-style="italic" fill="#FFFFFF" opacity="0.85">spacingSpec, sizingSpec</text>
  <text x="934.2" y="612.8" text-anchor="middle" font-family="Inter, Helvetica, Arial, sans-serif" font-size="10" font-style="italic" fill="#FFFFFF" opacity="0.85">typographyEntrySpec</text>
  <text x="934.2" y="628.8" text-anchor="middle" font-family="Inter, Helvetica, Arial, sans-serif" font-size="10" font-style="italic" fill="#FFFFFF" opacity="0.85">typographySpec</text>
  <text x="934.2" y="644.8" text-anchor="middle" font-family="Inter, Helvetica, Arial, sans-serif" font-size="10" font-style="italic" fill="#FFFFFF" opacity="0.85">responsiveEntry</text>
  <text x="934.2" y="660.8" text-anchor="middle" font-family="Inter, Helvetica, Arial, sans-serif" font-size="10" font-style="italic" fill="#FFFFFF" opacity="0.85">designSpecifications</text>
  <rect x="837" y="688" width="194.4" height="120" rx="6" ry="6" fill="#D4A843" stroke="#C39732" stroke-width="1.5" />
  <text x="934.2" y="710.8" text-anchor="middle" font-family="Inter, Helvetica, Arial, sans-serif" font-size="12" font-weight="700" fill="#FFFFFF">guideline</text>
  <text x="934.2" y="730.8" text-anchor="middle" font-family="Inter, Helvetica, Arial, sans-serif" font-size="10" font-style="italic" fill="#FFFFFF" opacity="0.85">generalGuideline</text>
  <text x="934.2" y="746.8" text-anchor="middle" font-family="Inter, Helvetica, Arial, sans-serif" font-size="10" font-style="italic" fill="#FFFFFF" opacity="0.85">componentGuideline</text>
  <text x="934.2" y="762.8" text-anchor="middle" font-family="Inter, Helvetica, Arial, sans-serif" font-size="10" font-style="italic" fill="#FFFFFF" opacity="0.85">styleGuideline</text>
  <text x="934.2" y="778.8" text-anchor="middle" font-family="Inter, Helvetica, Arial, sans-serif" font-size="10" font-style="italic" fill="#FFFFFF" opacity="0.85">patternGuideline</text>
  <text x="934.2" y="794.8" text-anchor="middle" font-family="Inter, Helvetica, Arial, sans-serif" font-size="10" font-style="italic" fill="#FFFFFF" opacity="0.85">tokenGuideline</text>
  <rect x="837" y="822" width="194.4" height="72" rx="6" ry="6" fill="#D4A843" stroke="#C39732" stroke-width="1.5" />
  <text x="934.2" y="844.8" text-anchor="middle" font-family="Inter, Helvetica, Arial, sans-serif" font-size="12" font-weight="700" fill="#FFFFFF">interaction</text>
  <text x="934.2" y="864.8" text-anchor="middle" font-family="Inter, Helvetica, Arial, sans-serif" font-size="10" font-style="italic" fill="#FFFFFF" opacity="0.85">interactionEntry</text>
  <text x="934.2" y="880.8" text-anchor="middle" font-family="Inter, Helvetica, Arial, sans-serif" font-size="10" font-style="italic" fill="#FFFFFF" opacity="0.85">interactions</text>
  <rect x="837" y="908" width="194.4" height="72" rx="6" ry="6" fill="#D4A843" stroke="#C39732" stroke-width="1.5" />
  <text x="934.2" y="930.8" text-anchor="middle" font-family="Inter, Helvetica, Arial, sans-serif" font-size="12" font-weight="700" fill="#FFFFFF">motion</text>
  <text x="934.2" y="950.8" text-anchor="middle" font-family="Inter, Helvetica, Arial, sans-serif" font-size="10" font-style="italic" fill="#FFFFFF" opacity="0.85">motionDuration, motionEntry</text>
  <text x="934.2" y="966.8" text-anchor="middle" font-family="Inter, Helvetica, Arial, sans-serif" font-size="10" font-style="italic" fill="#FFFFFF" opacity="0.85">motion</text>
  <rect x="837" y="994" width="194.4" height="56" rx="6" ry="6" fill="#D4A843" stroke="#C39732" stroke-width="1.5" />
  <text x="934.2" y="1016.8" text-anchor="middle" font-family="Inter, Helvetica, Arial, sans-serif" font-size="12" font-weight="700" fill="#FFFFFF">principle</text>
  <text x="934.2" y="1036.8" text-anchor="middle" font-family="Inter, Helvetica, Arial, sans-serif" font-size="10" font-style="italic" fill="#FFFFFF" opacity="0.85">principleEntry, principles</text>
  <rect x="837" y="1064" width="194.4" height="56" rx="6" ry="6" fill="#D4A843" stroke="#C39732" stroke-width="1.5" />
  <text x="934.2" y="1086.8" text-anchor="middle" font-family="Inter, Helvetica, Arial, sans-serif" font-size="12" font-weight="700" fill="#FFFFFF">scale</text>
  <text x="934.2" y="1106.8" text-anchor="middle" font-family="Inter, Helvetica, Arial, sans-serif" font-size="10" font-style="italic" fill="#FFFFFF" opacity="0.85">scaleStep, scale</text>
  <rect x="837" y="1134" width="194.4" height="56" rx="6" ry="6" fill="#D4A843" stroke="#C39732" stroke-width="1.5" />
  <text x="934.2" y="1156.8" text-anchor="middle" font-family="Inter, Helvetica, Arial, sans-serif" font-size="12" font-weight="700" fill="#FFFFFF">state</text>
  <text x="934.2" y="1176.8" text-anchor="middle" font-family="Inter, Helvetica, Arial, sans-serif" font-size="10" font-style="italic" fill="#FFFFFF" opacity="0.85">stateEntry, states</text>
  <rect x="837" y="1204" width="194.4" height="72" rx="6" ry="6" fill="#D4A843" stroke="#C39732" stroke-width="1.5" />
  <text x="934.2" y="1226.8" text-anchor="middle" font-family="Inter, Helvetica, Arial, sans-serif" font-size="12" font-weight="700" fill="#FFFFFF">variant</text>
  <text x="934.2" y="1246.8" text-anchor="middle" font-family="Inter, Helvetica, Arial, sans-serif" font-size="10" font-style="italic" fill="#FFFFFF" opacity="0.85">variantValue, flagVariant</text>
  <text x="934.2" y="1262.8" text-anchor="middle" font-family="Inter, Helvetica, Arial, sans-serif" font-size="10" font-style="italic" fill="#FFFFFF" opacity="0.85">enumVariant, variants</text>
</svg>
